<svg width="81" height="48" viewBox="0 0 81 48" fill="none" xmlns="http://www.w3.org/2000/svg">
<path d="M9.28 47.8C7.62667 47.8 6.05333 47.3467 4.56 46.44C3.06667 45.48 1.94667 44.04 1.2 42.12C0.933333 41.4267 0.746667 40.7067 0.64 39.96C0.533333 39.16 0.48 38.3867 0.48 37.64C0.48 36.8933 0.613333 36.52 0.88 36.52C1.2 36.52 1.36 36.7333 1.36 37.16C1.36 39.6667 1.97333 41.56 3.2 42.84C4.48 44.12 6.05333 44.76 7.92 44.76C9.78667 44.76 11.5733 44.2267 13.28 43.16C15.04 42.0933 16.6667 40.7333 18.16 39.08C20.6133 36.4133 22.6933 33.72 24.4 31C26.1067 28.2267 27.6533 25.4 29.04 22.52C30.48 19.5867 31.92 16.5467 33.36 13.4C34.2667 11.48 35.3867 9.8 36.72 8.36C38.1067 6.92 39.76 5.93333 41.68 5.4L41.76 5.32H37.36C35.4933 5.32 33.52 5.4 31.44 5.56C29.36 5.72 27.4667 6.06666 25.76 6.6C24.1067 7.13333 22.9067 7.93333 22.16 9C21.68 9.69333 21.44 10.4933 21.44 11.4C21.44 12.3067 21.68 13.1867 22.16 14.04C22.64 14.8933 23.2533 15.5067 24 15.88C24.1067 15.9867 24.16 16.0667 24.16 16.12C24.16 16.2267 24.0267 16.36 23.76 16.52C23.5467 16.6267 23.3067 16.6533 23.04 16.6C22.6133 16.3333 22.08 15.9067 21.44 15.32C20.8 14.68 20.2133 14.0133 19.68 13.32C19.2 12.6267 18.88 12.04 18.72 11.56C18.5067 10.92 18.4 10.28 18.4 9.64C18.4 8.36 18.8533 7.32 19.76 6.52C20.72 5.72 21.9467 5.10666 23.44 4.68C24.9333 4.25333 26.5333 3.96 28.24 3.8C30 3.58666 31.68 3.48 33.28 3.48C34.9333 3.42666 36.3467 3.4 37.52 3.4H46.16C46.2667 3.4 46.32 3.42666 46.32 3.48C46.32 3.64 46.1333 3.88 45.76 4.2C45.44 4.46666 45.2267 4.6 45.12 4.6C43.7867 4.86666 42.8 5.58666 42.16 6.76C41.52 7.88 41.2267 9.69333 41.28 12.2C41.28 12.2 41.28 12.7867 41.28 13.96C41.3333 15.1333 41.3867 16.6533 41.44 18.52C41.4933 20.3867 41.5467 22.3867 41.6 24.52C41.6533 26.6533 41.7067 28.7067 41.76 30.68C41.8133 32.6533 41.8667 34.3067 41.92 35.64V36.12L69.68 6.84C71.44 4.97333 73.1733 3.4 74.88 2.12C76.64 0.786664 78.4533 0.199999 80.32 0.36C80.3733 0.36 80.4 0.386666 80.4 0.439999C80.4533 0.439999 80.48 0.439999 80.48 0.439999C80.48 0.599997 80.3733 0.786662 80.16 0.999996C79.9467 1.21333 79.7067 1.34666 79.44 1.4C78.0533 1.34666 76.8 1.88 75.68 3C74.56 4.12 73.52 5.45333 72.56 7C72.08 7.8 71.36 9.08 70.4 10.84C69.44 12.5467 68.3467 14.5733 67.12 16.92C65.9467 19.2667 64.7467 21.7467 63.52 24.36C62.2933 26.9733 61.1467 29.5333 60.08 32.04C59.0667 34.5467 58.24 36.84 57.6 38.92C56.96 40.9467 56.64 42.6 56.64 43.88C56.64 45.3733 57.1467 46.12 58.16 46.12C58.5867 46.12 59.04 46.0133 59.52 45.8C60.2133 45.5333 60.9867 45.1333 61.84 44.6C62.6933 44.0667 63.4667 43.4533 64.16 42.76C65.5467 41.4267 66.7733 40.0667 67.84 38.68C68.9067 37.24 69.5467 36.4133 69.76 36.2C69.92 35.9867 70.0533 35.88 70.16 35.88C70.3733 35.88 70.48 36.04 70.48 36.36C70.48 36.68 70.3733 36.9733 70.16 37.24C69.7333 37.7733 69.0133 38.7067 68 40.04C66.9867 41.32 65.7867 42.6267 64.4 43.96C63.0667 45.2933 61.6267 46.3067 60.08 47C59.6 47.2133 59.0933 47.3733 58.56 47.48C58.0267 47.64 57.4933 47.72 56.96 47.72C55.7867 47.72 54.72 47.3733 53.76 46.68C52.8533 45.9333 52.4 44.7067 52.4 43C52.4 41.3467 52.7733 39.48 53.52 37.4C54.32 35.2667 55.2 33.2133 56.16 31.24C57.1733 29.2133 58 27.5067 58.64 26.12C59.3333 24.68 60.2133 22.84 61.28 20.6C62.3467 18.36 63.5733 16.0933 64.96 13.8L41.92 38.12C41.8667 38.5467 41.68 38.9733 41.36 39.4C41.04 39.7733 40.5333 40.0933 39.84 40.36C39.4667 40.52 38.96 40.9467 38.32 41.64C37.68 42.3333 37.2533 42.8133 37.04 43.08C37.04 43.1333 36.96 43.16 36.8 43.16C36.64 43.16 36.48 43.1067 36.32 43C36.16 42.8933 36.1067 42.8133 36.16 42.76C37.5467 41 38.2667 38.5733 38.32 35.48L38.4 33.56C38.5067 31.32 38.5867 28.9733 38.64 26.52C38.6933 24.0133 38.72 21.6933 38.72 19.56C38.7733 17.3733 38.8 15.6133 38.8 14.28C38.8 12.8933 38.8 12.2 38.8 12.2C38.8 10.92 38.9867 9.8 39.36 8.84C39.7333 7.88 40.1867 7.05333 40.72 6.36C39.8133 7.05333 38.9333 7.88 38.08 8.84C37.2267 9.8 36.5067 10.8667 35.92 12.04C35.12 13.6933 34.2133 15.8267 33.2 18.44C32.1867 21.0533 31.0133 23.8267 29.68 26.76C28.4 29.6933 26.96 32.5733 25.36 35.4C23.8133 38.1733 22.08 40.5733 20.16 42.6C18.8267 44.04 17.12 45.2667 15.04 46.28C13.0133 47.2933 11.0933 47.8 9.28 47.8Z" fill="black"/>
</svg>
